<svg t="1727105816899" class="icon" viewBox="0 0 1024 1024" version="1.1" xmlns="http://www.w3.org/2000/svg" p-id="1826" width="200" height="200"><path d="M526.666024 82.110089l355.705328 178.093141c11.365862 5.704932 18.469654 17.529235 18.469654 29.857005l0 0 0 444.708408c0 14.207583-8.764618 26.53433-21.311375 31.277354L526.666024 942.216345c-9.705036 4.743024-20.589944 4.28356-29.835516 0L141.627624 764.626671c-11.846816-5.924943-18.469654-17.748223-18.469654-29.857005l0 0 0-444.708408c0-14.46955 8.743128-26.774807 21.311375-31.517831L496.830509 82.110089C506.535545 76.930113 517.66093 77.389578 526.666024 82.110089L526.666024 82.110089zM215.986169 297.164027 215.986169 297.164027 511.759523 445.159686c225.195925-112.718201-2.601244 1.179872 296.253284-147.995659L511.759523 149.125389C314.475298 247.876484 569.790194 120.249735 215.986169 297.164027L215.986169 297.164027zM189.932794 328.879356 189.932794 328.879356l0 385.540843 302.177204 150.83738L492.109997 479.738225 189.932794 328.879356 189.932794 328.879356zM531.890003 865.257579 531.890003 865.257579l302.658158-150.83738 0-385.540843c-101.133352 50.183959-202.004737 100.411921-302.658158 150.85887L531.890003 865.257579 531.890003 865.257579z" p-id="1827" data-spm-anchor-id="a313x.manage_type_myprojects.0.i3.2fa33a816BByoo" class="selected" fill="#ffffff"></path></svg>