<svg t="1727189791788" class="icon" viewBox="0 0 1138 1024" version="1.1" xmlns="http://www.w3.org/2000/svg" p-id="10027" width="200" height="200"><path d="M991.728157 939.866007a62.574301 62.574301 0 0 1-31.059607-8.305316h-0.341315a62.972502 62.972502 0 0 1 62.574302-109.106827 62.972502 62.972502 0 0 1-31.457808 117.525915m-844.013555 0a62.574301 62.574301 0 0 1-54.382757-31.230265v-0.341314a62.85873 62.85873 0 1 1 108.708628-63.143159 62.972502 62.972502 0 0 1-54.382757 94.487195m422.092106-114.909172l-160.702183-92.268651v-184.309761l160.702183-92.211766 160.588412 92.211766v184.309761L569.465394 824.843064m0-614.87784a63.029387 63.029387 0 1 1 63.143159-63.029387 63.029387 63.029387 0 0 1-63.143159 63.029387m0-209.965224a148.35798 148.35798 0 0 0-47.442697 7.850231 146.822065 146.822065 0 0 0 0 278.341869v88.059108L342.946423 477.157491a57.511472 57.511472 0 0 0-28.954836 49.94567v199.10005l-69.798789 40.388867a146.935837 146.935837 0 1 0-24.347092 237.839231l0.568858-0.3982a146.76518 146.76518 0 0 0 70.538303-155.866896l64.167102-37.146381 185.106161 106.319427a58.137215 58.137215 0 0 0 57.966557 0l184.821732-106.319427 64.110216 37.146381a146.76518 146.76518 0 0 0 270.548525 102.963169l0.511972-0.853286a146.935837 146.935837 0 0 0-53.586356-200.749736 146.423865 146.423865 0 0 0-170.258986 17.065718l-69.685017-40.388867v-199.10005a57.682129 57.682129 0 0 0-28.954836-50.002555L616.623663 374.308094V286.533415a146.935837 146.935837 0 0 0-47.385812-286.192101" fill="#ffffff" p-id="10028" data-spm-anchor-id="a313x.search_index.0.i13.1f3d3a81Jvrian" class="selected"></path></svg>