<svg
          data-v-6d64af8d=""
          xmlns="http://www.w3.org/2000/svg"
          width="1em"
          height="1em"
          viewBox="0 0 16 16"
          style="font-size: 16px; transform: rotate(0deg)"
        >
          <defs>
            <clipPath id="mg-icon69a">
              <rect width="16" height="16" rx="0"></rect>
            </clipPath>
          </defs>
          <g clip-path="url(#mg-icon69a)">
            <path
              fill="currentcolor"
              fill-opacity=".85"
              fill-rule="evenodd"
              d="m4.255 13.498.015.02q.788 1.054 1.964 1.643 1.177.589 2.492.589h1.39q2.127 0 3.63-1.504 1.504-1.503 1.504-3.63V4.618q0-.81-.572-1.382-.572-.572-1.382-.572-.263 0-.5.06-.118-.528-.526-.936-.572-.572-1.381-.572-.35 0-.657.107-.138-.27-.369-.5Q9.291.25 8.481.25 7.672.25 7.1.822q-.408.408-.525.937-.238-.06-.5-.06-.81 0-1.382.572-.573.572-.573 1.381v3.114q-.298-.16-.66-.211-.811-.116-1.466.377-.637.479-.763 1.266-.126.788.33 1.442zm3.773-9.846v3.624h-1.5V3.652q0-.188-.133-.32-.133-.134-.32-.134-.189 0-.322.133t-.133.321v5.072l-1.35.45-.71-.949q-.117-.157-.312-.185-.195-.028-.352.09-.154.116-.184.305-.03.19.08.346l2.686 3.848q.574.763 1.428 1.19.86.431 1.82.431h1.39q1.505 0 2.57-1.064 1.064-1.065 1.064-2.57V4.618q0-.188-.133-.321t-.32-.133q-.189 0-.322.133-.132.133-.132.32v2.659h-1.5V3.169q0-.188-.133-.32-.133-.133-.321-.133t-.32.132q-.134.133-.134.321v4.107h-1.5V2.204q0-.188-.133-.321t-.32-.133q-.188 0-.321.133t-.133.32z"
            ></path>
          </g>
        </svg>